<?xml version="1.0" encoding="iso-8859-1"?>
<!-- Generator: Adobe Illustrator 19.0.0, SVG Export Plug-In . SVG Version: 6.00 Build 0)  -->
<svg version="1.1" id="Layer_1" xmlns="http://www.w3.org/2000/svg" xmlns:xlink="http://www.w3.org/1999/xlink" x="0px" y="0px"
	 viewBox="0 0 504.32 504.32" style="enable-background:new 0 0 504.32 504.32;" xml:space="preserve">
<path style="fill:#80D6FA;" d="M430.08,230.4c39.253,11.093,69.12,46.933,69.12,90.453c0,52.053-41.813,93.867-93.867,93.867H64
	c-33.28,0-59.733-26.453-59.733-59.733c0-28.16,19.627-51.2,45.227-58.027C42.667,283.307,38.4,268.8,38.4,252.587
	c0-52.053,41.813-93.867,93.867-93.867c18.773,0,35.84,5.12,51.2,15.36c17.92-48.64,64.853-83.627,119.467-83.627
	c70.827,0,128,57.173,128,128C430.933,222.72,430.933,226.133,430.08,230.4"/>
<path style="fill:#51565F;" d="M405.333,418.987H64c-34.987,0-64-29.013-64-64s29.013-64,64-64c2.56,0,4.267,1.707,4.267,4.267
	c0,2.56-1.707,4.267-4.267,4.267c-30.72,0-55.467,24.747-55.467,55.467S33.28,410.453,64,410.453h341.333
	c49.493,0,89.6-40.107,89.6-89.6c0-29.013-14.507-56.32-37.547-73.387c-1.707-1.707-2.56-4.267-0.853-5.973s4.267-2.56,5.973-0.853
	c25.6,18.773,41.813,48.64,41.813,80.213C503.467,374.613,459.093,418.987,405.333,418.987z M40.107,273.92
	c-1.707,0-3.413-1.707-4.267-3.413c-0.853-5.973-1.707-11.947-1.707-17.92c0-53.76,44.373-98.133,98.133-98.133
	c27.307,0,52.053,11.093,70.827,30.72c1.707,1.707,1.707,4.267,0,5.973c-1.707,1.707-4.267,1.707-5.973,0
	c-17.067-17.92-40.107-28.16-64.853-28.16c-49.493,0-89.6,40.107-89.6,89.6c0,5.12,0.853,11.093,1.707,16.213
	C44.373,271.36,42.667,273.067,40.107,273.92L40.107,273.92z M426.667,256.853h-0.853c-2.56-0.853-3.413-2.56-2.56-5.12
	c2.56-11.093,4.267-22.187,4.267-33.28c0-68.267-55.467-123.733-123.733-123.733c-40.96,0-79.36,20.48-102.4,54.613
	c-1.707,1.707-4.267,2.56-5.973,0.853c-1.707-1.707-2.56-4.267-0.853-5.973c24.747-36.693,65.707-58.88,110.08-58.88
	c72.533,0,132.267,59.733,132.267,132.267c0,11.947-1.707,23.893-5.12,34.987C430.08,256,428.373,256.853,426.667,256.853z
	 M75.093,239.787H74.24c-2.56-0.853-3.413-3.413-2.56-5.12c4.267-13.653,12.8-25.6,24.747-34.133
	c1.707-1.707,4.267-0.853,5.973,0.853c1.707,1.707,0.853,4.267-0.853,5.973c-10.24,6.827-17.92,17.92-21.333,29.867
	C78.507,238.933,76.8,239.787,75.093,239.787z M396.8,222.72c-2.56,0-4.267-1.707-4.267-4.267c0-17.067-5.12-34.133-14.507-48.64
	c-1.707-1.707-0.853-4.267,0.853-5.973c1.707-1.707,4.267-0.853,5.973,0.853c10.24,16.213,16.213,34.133,16.213,53.76
	C401.067,221.013,399.36,222.72,396.8,222.72z"/>
<g>
</g>
<g>
</g>
<g>
</g>
<g>
</g>
<g>
</g>
<g>
</g>
<g>
</g>
<g>
</g>
<g>
</g>
<g>
</g>
<g>
</g>
<g>
</g>
<g>
</g>
<g>
</g>
<g>
</g>
</svg>
