<?xml version="1.0" encoding="iso-8859-1"?>
<!-- Generator: Adobe Illustrator 19.0.0, SVG Export Plug-In . SVG Version: 6.00 Build 0)  -->
<svg version="1.1" id="Layer_1" xmlns="http://www.w3.org/2000/svg" xmlns:xlink="http://www.w3.org/1999/xlink" x="0px" y="0px"
	 viewBox="0 0 503.787 503.787" style="enable-background:new 0 0 503.787 503.787;" xml:space="preserve">
<g transform="translate(15 15)">
	<polygon style="fill:#ECF4F7;" points="364.893,365.053 347.827,382.12 364.893,399.187 381.96,416.253 399.027,399.187 
		416.093,382.12 399.027,365.053 381.96,347.987 	"/>
	<path style="fill:#FFE079;" d="M330.76,324.093c-2.56,2.56-4.267,5.12-6.827,6.827c-23.04,21.333-53.76,34.133-87.04,34.133
		c-70.827,0-128-57.173-128-128s57.173-128,128-128s128,57.173,128,128C364.893,270.333,352.093,301.053,330.76,324.093"/>
</g>
<path style="fill:#51565F;" d="M149.493,503.787c-0.853,0-0.853,0-1.707,0c-1.707-0.853-2.56-2.56-2.56-4.267
	c0-0.853,0-0.853,0-1.707l14.507-34.987c0.853-2.56,3.413-3.413,5.973-2.56c1.707,0.853,2.56,2.56,2.56,4.267
	c0,0.853,0,0.853,0,1.707l-14.507,34.987C152.907,502.933,151.2,503.787,149.493,503.787z M396.96,503.787
	c-2.56,0-4.267-1.707-4.267-4.267v-12.8h-12.8c-2.56,0-4.267-1.707-4.267-4.267c0-2.56,1.707-4.267,4.267-4.267h12.8v-25.6h-4.267
	c-2.56,0-4.267-1.707-4.267-4.267c0-2.56,1.707-4.267,4.267-4.267h4.267V432.96l-12.8-12.8l-29.867,29.867v15.36
	c0,2.56-1.707,4.267-4.267,4.267s-4.267-1.707-4.267-4.267v-12.8h-12.8c-2.56,0-4.267-1.707-4.267-4.267
	c0-2.56,1.707-4.267,4.267-4.267h15.36l29.867-29.867l-12.8-12.8h-11.093v4.267c0,2.56-1.707,4.267-4.267,4.267
	s-4.267-1.707-4.267-4.267v-4.267h-25.6v12.8c0,2.56-1.707,4.267-4.267,4.267c-2.56,0-4.267-1.707-4.267-4.267v-12.8h-12.8
	c-2.56,0-4.267-1.707-4.267-4.267c0-2.56,1.707-4.267,4.267-4.267h12.8v-12.8c0-2.56,1.707-4.267,4.267-4.267
	c2.56,0,4.267,1.707,4.267,4.267v12.8h25.6v-4.267c0-2.56,1.707-4.267,4.267-4.267s4.267,1.707,4.267,4.267v4.267h11.093l12.8-12.8
	l-29.867-29.867h-15.36c-2.56,0-4.267-1.707-4.267-4.267s1.707-4.267,4.267-4.267h12.8v-12.8c0-2.56,1.707-4.267,4.267-4.267
	s4.267,1.707,4.267,4.267v15.36l29.867,29.867l12.8-12.8v-11.093h-4.267c-2.56,0-4.267-1.707-4.267-4.267s1.707-4.267,4.267-4.267
	h4.267v-25.6h-12.8c-2.56,0-4.267-1.707-4.267-4.267c0-2.56,1.707-4.267,4.267-4.267h12.8v-12.8c0-2.56,1.707-4.267,4.267-4.267
	s4.267,1.707,4.267,4.267v12.8h12.8c2.56,0,4.267,1.707,4.267,4.267c0,2.56-1.707,4.267-4.267,4.267h-12.8v25.6h4.267
	c2.56,0,4.267,1.707,4.267,4.267s-1.707,4.267-4.267,4.267h-4.267v11.093l12.8,12.8l29.867-29.867v-15.36
	c0-2.56,1.707-4.267,4.267-4.267s4.267,1.707,4.267,4.267v12.8h12.8c2.56,0,4.267,1.707,4.267,4.267s-1.707,4.267-4.267,4.267
	h-15.36L420,380.053l12.8,12.8h11.093v-4.267c0-2.56,1.707-4.267,4.267-4.267s4.267,1.707,4.267,4.267v4.267h25.6v-12.8
	c0-2.56,1.707-4.267,4.267-4.267s4.267,1.707,4.267,4.267v12.8h12.8c2.56,0,4.267,1.707,4.267,4.267c0,2.56-1.707,4.267-4.267,4.267
	h-12.8v12.8c0,2.56-1.707,4.267-4.267,4.267s-4.267-1.707-4.267-4.267v-12.8h-25.6v4.267c0,2.56-1.707,4.267-4.267,4.267
	s-4.267-1.707-4.267-4.267v-4.267H432.8l-12.8,12.8l29.867,29.867h15.36c2.56,0,4.267,1.707,4.267,4.267
	c0,2.56-1.707,4.267-4.267,4.267h-12.8v12.8c0,2.56-1.707,4.267-4.267,4.267s-4.267-1.707-4.267-4.267v-15.36l-29.867-29.867
	l-12.8,12.8v11.093h4.267c2.56,0,4.267,1.707,4.267,4.267c0,2.56-1.707,4.267-4.267,4.267h-4.267v25.6h12.8
	c2.56,0,4.267,1.707,4.267,4.267c0,2.56-1.707,4.267-4.267,4.267h-12.8v12.8C401.227,502.08,399.52,503.787,396.96,503.787z
	 M383.307,410.773l13.653,13.653l28.16-28.16l-28.16-28.16l-28.16,28.16L383.307,410.773L383.307,410.773z M251.893,486.72
	c-2.56,0-4.267-1.707-4.267-4.267v-68.267c0-2.56,1.707-4.267,4.267-4.267s4.267,1.707,4.267,4.267v68.267
	C256.16,485.013,254.453,486.72,251.893,486.72z M176.8,437.227c-0.853,0-0.853,0-1.707,0c-1.707-0.853-2.56-2.56-2.56-4.267
	c0-0.853,0-0.853,0-1.707l12.8-31.573c0.853-2.56,3.413-3.413,5.973-2.56c1.707,0.853,2.56,2.56,2.56,4.267c0,0.853,0,0.853,0,1.707
	l-12.8,31.573C180.213,436.373,178.507,437.227,176.8,437.227z M92.32,420.16c-0.853,0-2.56,0-3.413-0.853s-0.853-1.707-0.853-3.413
	s0-2.56,0.853-3.413l48.64-48.64c1.707-1.707,4.267-1.707,5.973,0c0.853,0.853,0.853,1.707,0.853,3.413s0,2.56-0.853,3.413
	l-48.64,48.64C94.027,420.16,93.173,420.16,92.32,420.16z M251.893,384.32c-72.533,0-132.267-59.733-132.267-132.267
	s59.733-132.267,132.267-132.267S384.16,179.52,384.16,252.053c0,5.973,0,11.947-0.853,17.92c0,2.56-2.56,4.267-5.12,3.413
	c-2.56,0-4.267-2.56-3.413-5.12c0.853-5.12,0.853-11.093,0.853-17.067c0-68.267-55.467-123.733-123.733-123.733
	S128.16,182.933,128.16,251.2s55.467,123.733,123.733,123.733c5.12,0,11.093,0,16.213-0.853c2.56,0,4.267,1.707,5.12,3.413
	c0,2.56-1.707,4.267-3.413,5.12C263.84,384.32,257.867,384.32,251.893,384.32z M4.427,358.72c-1.707,0-3.413-0.853-4.267-2.56
	c0-0.853,0-0.853,0-1.707c0-1.707,0.853-3.413,2.56-4.267l34.987-14.507c2.56-0.853,4.267,0,5.973,2.56c0,0.853,0,0.853,0,1.707
	c0,1.707-0.853,3.413-2.56,4.267L6.133,358.72C5.28,358.72,5.28,358.72,4.427,358.72z M70.987,331.413
	c-1.707,0-3.413-0.853-4.267-2.56c0-0.853,0-0.853,0-1.707c0-1.707,0.853-3.413,2.56-4.267l31.573-12.8
	c2.56-0.853,4.267,0,5.973,2.56c0,0.853,0,0.853,0,1.707c0,1.707-0.853,3.413-2.56,4.267l-31.573,12.8
	C71.84,331.413,70.987,331.413,70.987,331.413z M482.293,256.32h-68.267c-2.56,0-4.267-1.707-4.267-4.267
	c0-2.56,1.707-4.267,4.267-4.267h68.267c2.56,0,4.267,1.707,4.267,4.267C486.56,254.613,484.853,256.32,482.293,256.32z
	 M89.76,256.32H21.493c-2.56,0-4.267-1.707-4.267-4.267c0-2.56,1.707-4.267,4.267-4.267H89.76c2.56,0,4.267,1.707,4.267,4.267
	C94.027,254.613,92.32,256.32,89.76,256.32z M335.52,213.653c-1.707,0-3.413-0.853-3.413-2.56
	c-6.827-13.653-17.92-25.6-30.72-34.987c-1.707-1.707-2.56-4.267-0.853-5.973c1.707-1.707,4.267-2.56,5.973-0.853
	c14.507,9.387,26.453,22.187,34.133,37.547c0.853,1.707,0,4.267-1.707,5.973C337.227,213.653,336.373,213.653,335.52,213.653z
	 M402.08,194.027c-1.707,0-3.413-0.853-4.267-2.56c0-0.853,0-0.853,0-1.707c0-1.707,0.853-3.413,2.56-4.267l31.573-12.8
	c2.56-0.853,4.267,0,5.973,2.56c0,0.853,0,0.853,0,1.707c0,1.707-0.853,3.413-2.56,4.267l-31.573,12.8
	C402.933,194.027,402.08,194.027,402.08,194.027z M101.707,194.027c-0.853,0-0.853,0-1.707,0l-31.573-12.8
	c-1.707-0.853-2.56-2.56-2.56-4.267c0-0.853,0-0.853,0-1.707c0.853-2.56,3.413-3.413,5.973-2.56l31.573,12.8
	c1.707,0.853,2.56,2.56,2.56,4.267c0,0.853,0,0.853,0,1.707C105.12,193.173,103.413,194.027,101.707,194.027z M464.373,168.427
	c-1.707,0-3.413-0.853-4.267-2.56c0-0.853,0-0.853,0-1.707c0-1.707,0.853-3.413,2.56-4.267l34.987-14.507
	c2.56-0.853,4.267,0,5.973,2.56c0,0.853,0,0.853,0,1.707c0,1.707-0.853,3.413-2.56,4.267l-34.987,14.507
	C466.08,168.427,465.227,168.427,464.373,168.427z M39.413,168.427c-0.853,0-0.853,0-1.707,0L2.72,153.92
	c-1.707-0.853-2.56-2.56-2.56-4.267c0-0.853,0-0.853,0-1.707c0.853-2.56,3.413-3.413,5.973-2.56l34.987,14.507
	c1.707,0.853,2.56,2.56,2.56,4.267c0,0.853,0,0.853,0,1.707C41.973,167.573,41.12,168.427,39.413,168.427z M369.653,142.827
	c-0.853,0-2.56,0-3.413-0.853c-0.853-0.853-0.853-1.707-0.853-3.413s0-2.56,0.853-3.413l42.667-41.813
	c1.707-1.707,4.267-1.707,5.973,0c0.853,0.853,0.853,1.707,0.853,3.413c0,1.707,0,2.56-0.853,3.413l-42.667,41.813
	C371.36,142.827,370.507,142.827,369.653,142.827z M140.107,142.827c-0.853,0-2.56,0-3.413-0.853l-48.64-48.64
	C87.2,92.48,87.2,91.627,87.2,89.92s0-2.56,0.853-3.413c1.707-1.707,4.267-1.707,5.973,0l48.64,48.64
	c0.853,0.853,0.853,1.707,0.853,3.413s0,2.56-0.853,3.413C141.813,142.827,140.96,142.827,140.107,142.827z M314.187,106.133
	c-0.853,0-0.853,0-1.707,0c-1.707-0.853-2.56-2.56-2.56-4.267c0-0.853,0-0.853,0-1.707l12.8-31.573
	c0.853-2.56,3.413-3.413,5.973-2.56c1.707,0.853,2.56,2.56,2.56,4.267c0,0.853,0,0.853,0,1.707l-12.8,31.573
	C317.6,105.28,315.893,106.133,314.187,106.133z M189.6,106.133c-1.707,0-3.413-0.853-4.267-2.56L172.533,72
	c0-0.853,0-0.853,0-1.707c0-1.707,0.853-3.413,2.56-4.267c2.56-0.853,4.267,0,5.973,2.56l12.8,31.573c0,0.853,0,0.853,0,1.707
	c0,1.707-0.853,3.413-2.56,4.267C191.307,106.133,190.453,106.133,189.6,106.133z M251.893,94.187c-2.56,0-4.267-1.707-4.267-4.267
	V30.187c0-2.56,1.707-4.267,4.267-4.267s4.267,1.707,4.267,4.267V89.92C256.16,92.48,254.453,94.187,251.893,94.187z M164,43.84
	c-1.707,0-3.413-0.853-4.267-2.56L145.227,6.293c0-0.853,0-0.853,0-1.707c0-1.707,0.853-3.413,2.56-4.267
	c2.56-0.853,4.267,0,5.973,2.56l14.507,34.987c0,0.853,0,0.853,0,1.707c0,1.707-0.853,3.413-2.56,4.267
	C164.853,42.987,164,43.84,164,43.84z M339.787,43.84c-0.853,0-0.853,0-1.707,0c-1.707-0.853-2.56-2.56-2.56-4.267
	c0-0.853,0-0.853,0-1.707L350.027,2.88c0.853-2.56,3.413-3.413,5.973-2.56c1.707,0.853,2.56,2.56,2.56,4.267
	c0,0.853,0,0.853,0,1.707L344.053,41.28C343.2,42.133,341.493,43.84,339.787,43.84z"/>
<g>
</g>
<g>
</g>
<g>
</g>
<g>
</g>
<g>
</g>
<g>
</g>
<g>
</g>
<g>
</g>
<g>
</g>
<g>
</g>
<g>
</g>
<g>
</g>
<g>
</g>
<g>
</g>
<g>
</g>
</svg>
