<?xml version="1.0" encoding="iso-8859-1"?>
<!-- Generator: Adobe Illustrator 19.0.0, SVG Export Plug-In . SVG Version: 6.00 Build 0)  -->
<svg version="1.1" id="Layer_1" xmlns="http://www.w3.org/2000/svg" xmlns:xlink="http://www.w3.org/1999/xlink" x="0px" y="0px"
	 viewBox="0 0 504.32 504.32" style="enable-background:new 0 0 504.32 504.32;" xml:space="preserve">
<path style="fill:#AAB1BA;" d="M430.08,187.733c39.253,11.093,69.12,46.933,69.12,90.453c0,52.053-41.813,93.867-93.867,93.867H64
	c-33.28,0-59.733-26.453-59.733-59.733c0-28.16,19.627-51.2,45.227-58.027C42.667,240.64,38.4,226.134,38.4,209.92
	c0-52.053,41.813-93.867,93.867-93.867c18.773,0,35.84,5.12,51.2,15.36c17.92-48.64,64.853-83.627,119.467-83.627
	c70.827,0,128,57.173,128,128C430.933,180.053,430.933,183.467,430.08,187.733"/>
<path style="fill:#51565F;" d="M192,461.653c-0.853,0-0.853,0-1.707,0c-2.56-0.853-3.413-3.413-2.56-5.973l48.64-113.493h-61.44
	c-1.707,0-2.56-0.853-3.413-1.707c-0.853-0.853-0.853-2.56,0-4.267l51.2-119.467c0.853-2.56,3.413-3.413,5.973-2.56
	c2.56,0.853,3.413,3.413,2.56,5.973l-48.64,113.493h61.44c1.707,0,2.56,0.853,3.413,1.707c0.853,0.853,0.853,2.56,0,4.267
	l-51.2,119.467C195.413,460.8,193.707,461.653,192,461.653z M285.867,444.587c-0.853,0-1.707,0-2.56-0.853
	c-1.707-0.853-2.56-4.267-1.707-5.973l38.4-61.44h-43.52c-1.707,0-2.56-0.853-3.413-1.707c-0.853-0.853-0.853-2.56-0.853-4.267
	l25.6-68.267c0.853-2.56,3.413-3.413,5.12-2.56c2.56,0.853,3.413,3.413,2.56,5.12l-23.04,62.293h45.227
	c1.707,0,2.56,0.853,3.413,2.56c0.853,1.707,0.853,3.413,0,4.267l-42.667,68.267C288.427,443.733,287.573,444.587,285.867,444.587z
	 M405.333,376.32h-42.667c-2.56,0-4.267-1.707-4.267-4.267s1.707-4.267,4.267-4.267h42.667c49.493,0,89.6-40.107,89.6-89.6
	c0-29.013-14.507-56.32-37.547-73.387c-1.707-1.707-2.56-4.267-0.853-5.973s4.267-2.56,5.973-0.853
	c25.6,18.773,41.813,48.64,41.813,80.213C503.467,331.947,459.093,376.32,405.333,376.32z M192,376.32H64c-34.987,0-64-29.013-64-64
	s29.013-64,64-64c2.56,0,4.267,1.707,4.267,4.267c0,2.56-1.707,4.267-4.267,4.267c-30.72,0-55.467,24.747-55.467,55.467
	S33.28,367.787,64,367.787h128c2.56,0,4.267,1.707,4.267,4.267S194.56,376.32,192,376.32z M40.107,231.253
	c-1.707,0-3.413-1.707-4.267-3.413c-0.853-5.973-1.707-11.947-1.707-17.92c0-53.76,44.373-98.133,98.133-98.133
	c27.307,0,52.053,11.093,70.827,30.72c1.707,1.707,1.707,4.267,0,5.973c-1.707,1.707-4.267,1.707-5.973,0
	c-17.067-17.92-40.107-28.16-64.853-28.16c-49.493,0-89.6,40.107-89.6,89.6c0,5.12,0.853,11.093,1.707,16.213
	C44.373,228.693,42.667,230.4,40.107,231.253L40.107,231.253z M426.667,214.187h-0.853c-2.56-0.853-3.413-2.56-2.56-5.12
	c2.56-11.093,4.267-22.187,4.267-33.28c0-68.267-55.467-123.733-123.733-123.733c-40.96,0-79.36,20.48-102.4,54.613
	c-1.707,1.707-4.267,2.56-5.973,0.853c-1.707-1.707-2.56-4.267-0.853-5.973c24.747-36.693,65.707-58.88,110.08-58.88
	c72.533,0,132.267,59.733,132.267,132.267c0,11.947-1.707,23.893-5.12,34.987C430.08,213.333,428.373,214.187,426.667,214.187z
	 M75.093,197.12H74.24c-2.56-0.853-3.413-3.413-2.56-5.12c4.267-13.653,12.8-25.6,24.747-34.133
	c1.707-1.707,4.267-0.853,5.973,0.853c1.707,1.707,0.853,4.267-0.853,5.973c-10.24,6.827-17.92,17.92-21.333,29.867
	C78.507,196.267,76.8,197.12,75.093,197.12z M396.8,180.053c-2.56,0-4.267-1.707-4.267-4.267c0-17.067-5.12-34.133-14.507-48.64
	c-1.707-1.707-0.853-4.267,0.853-5.973c1.707-1.707,4.267-0.853,5.973,0.853c10.24,16.213,16.213,34.133,16.213,53.76
	C401.067,178.347,399.36,180.053,396.8,180.053z"/>
<g>
</g>
<g>
</g>
<g>
</g>
<g>
</g>
<g>
</g>
<g>
</g>
<g>
</g>
<g>
</g>
<g>
</g>
<g>
</g>
<g>
</g>
<g>
</g>
<g>
</g>
<g>
</g>
<g>
</g>
</svg>
