<?xml version="1.0" encoding="iso-8859-1"?>
<!-- Generator: Adobe Illustrator 19.0.0, SVG Export Plug-In . SVG Version: 6.00 Build 0)  -->
<svg version="1.1" id="Layer_1" xmlns="http://www.w3.org/2000/svg" xmlns:xlink="http://www.w3.org/1999/xlink" x="0px" y="0px"
	 viewBox="0 0 503.467 503.467" style="enable-background:new 0 0 503.467 503.467;" xml:space="preserve">
<g transform="translate(1 5)">
	<path style="fill:#ECF4F7;" d="M54.467,221.133v-51.2v-51.2V76.067c0-23.893,18.773-42.667,42.667-42.667
		S139.8,52.173,139.8,76.067v196.267H54.467V221.133z"/>
	<path style="fill:#80D6FA;" d="M139.8,316.707c30.72,15.36,51.2,46.933,51.2,83.627c0,52.053-41.813,93.867-93.867,93.867
		S3.267,452.387,3.267,400.333c0-36.693,20.48-68.267,51.2-83.627v-44.373H139.8V316.707z"/>
	<polygon style="fill:#ECF4F7;" points="344.6,118.733 361.667,135.8 378.733,152.867 361.667,169.933 344.6,187 327.533,169.933 
		310.467,152.867 327.533,135.8 	"/>
</g>
<path style="fill:#51565F;" d="M98.133,503.467C44.373,503.467,0,459.093,0,405.333c0-35.84,19.627-69.12,51.2-86.187v-41.813
	c0-2.56,1.707-4.267,4.267-4.267h51.2c2.56,0,4.267,1.707,4.267,4.267s-1.707,4.267-4.267,4.267H59.733v40.107
	c0,1.707-0.853,3.413-2.56,3.413c-29.867,15.36-48.64,46.08-48.64,79.36c0,49.493,40.107,89.6,89.6,89.6s89.6-40.107,89.6-89.6
	c0-34.133-18.773-64-48.64-79.36c-1.707-0.853-2.56-2.56-2.56-3.413V81.067c0-21.333-17.067-38.4-38.4-38.4s-38.4,17.067-38.4,38.4
	v38.4h12.8c2.56,0,4.267,1.707,4.267,4.267c0,2.56-1.707,4.267-4.267,4.267h-12.8v42.667h12.8c2.56,0,4.267,1.707,4.267,4.267
	c0,2.56-1.707,4.267-4.267,4.267h-12.8v42.667h12.8c2.56,0,4.267,1.707,4.267,4.267s-1.707,4.267-4.267,4.267h-12.8v12.8
	c0,2.56-1.707,4.267-4.267,4.267c-2.56,0-4.267-1.707-4.267-4.267V81.067c0-25.6,21.333-46.933,46.933-46.933
	s46.933,21.333,46.933,46.933v238.08c31.573,17.067,51.2,50.347,51.2,86.187C196.267,459.093,151.893,503.467,98.133,503.467z
	 M98.133,452.267c-2.56,0-4.267-1.707-4.267-4.267c0-2.56,1.707-4.267,4.267-4.267c21.333,0,38.4-17.067,38.4-38.4
	c0-2.56,1.707-4.267,4.267-4.267c2.56,0,4.267,1.707,4.267,4.267C145.067,430.933,123.733,452.267,98.133,452.267z M345.6,315.733
	c-2.56,0-4.267-1.707-4.267-4.267v-40.96l-17.92,17.92c-1.707,1.707-4.267,1.707-5.973,0c-1.707-1.707-1.707-4.267,0-5.973
	l24.747-24.747v-39.253L307.2,253.44c-1.707,1.707-4.267,1.707-5.973,0c-1.707-1.707-1.707-4.267,0-5.973l41.813-41.813V192
	l-12.8-12.8l-64,64v15.36c0,2.56-1.707,4.267-4.267,4.267c-2.56,0-4.267-1.707-4.267-4.267v-12.8h-12.8
	c-2.56,0-4.267-1.707-4.267-4.267s1.707-4.267,4.267-4.267h15.36l64-64l-12.8-12.8h-13.653L256,202.24
	c-1.707,1.707-4.267,1.707-5.973,0c-1.707-1.707-1.707-4.267,0-5.973l34.987-34.987H245.76l-24.747,24.747
	c-1.707,1.707-4.267,1.707-5.973,0c-1.707-1.707-1.707-4.267,0-5.973l17.92-17.92H192c-2.56,0-4.267-1.707-4.267-4.267
	c0-2.56,1.707-4.267,4.267-4.267h40.96l-17.92-17.92c-1.707-1.707-1.707-4.267,0-5.973c1.707-1.707,4.267-1.707,5.973,0
	l24.747,24.747h39.253l-34.987-34.987c-1.707-1.707-1.707-4.267,0-5.973c1.707-1.707,4.267-1.707,5.973,0l41.813,41.813h13.653
	l12.8-12.8l-64-64h-15.36c-2.56,0-4.267-1.707-4.267-4.267s1.707-4.267,4.267-4.267h12.8V55.467c0-2.56,1.707-4.267,4.267-4.267
	c2.56,0,4.267,1.707,4.267,4.267v15.36l64,64l12.8-12.8v-13.653L301.227,66.56c-1.707-1.707-1.707-4.267,0-5.973
	c1.707-1.707,4.267-1.707,5.973,0l34.987,34.987V56.32L317.44,31.573c-1.707-1.707-1.707-4.267,0-5.973
	c1.707-1.707,4.267-1.707,5.973,0l17.92,17.92V4.267c0-2.56,1.707-4.267,4.267-4.267s4.267,1.707,4.267,4.267v40.96l17.92-17.92
	c1.707-1.707,4.267-1.707,5.973,0c1.707,1.707,1.707,4.267,0,5.973l-24.747,24.747V97.28L384,62.293
	c1.707-1.707,4.267-1.707,5.973,0c1.707,1.707,1.707,4.267,0,5.973L348.16,110.08v13.653l12.8,12.8l64-64V55.467
	c0-2.56,1.707-4.267,4.267-4.267s4.267,1.707,4.267,4.267v12.8h12.8c2.56,0,4.267,1.707,4.267,4.267c0,2.56-1.707,4.267-4.267,4.267
	h-15.36l-64,64l12.8,12.8h13.653l41.813-41.813c1.707-1.707,4.267-1.707,5.973,0c1.707,1.707,1.707,4.267,0,5.973l-34.987,34.987
	h39.253L470.187,128c1.707-1.707,4.267-1.707,5.973,0c1.707,1.707,1.707,4.267,0,5.973l-17.92,17.92h40.96
	c2.56,0,4.267,1.707,4.267,4.267c0,2.56-1.707,4.267-4.267,4.267h-40.96l17.92,17.92c1.707,1.707,1.707,4.267,0,5.973
	c-1.707,1.707-4.267,1.707-5.973,0l-24.747-24.747h-39.253l34.987,34.987c1.707,1.707,1.707,4.267,0,5.973s-4.267,1.707-5.973,0
	l-41.813-41.813h-13.653l-12.8,12.8l64,64h15.36c2.56,0,4.267,1.707,4.267,4.267c0,2.56-1.707,4.267-4.267,4.267h-12.8v12.8
	c0,2.56-1.707,4.267-4.267,4.267s-4.267-1.707-4.267-4.267v-15.36l-64-64l-12.8,12.8v13.653l41.813,41.813
	c1.707,1.707,1.707,4.267,0,5.973s-4.267,1.707-5.973,0l-34.987-34.987v39.253l24.747,24.747c1.707,1.707,1.707,4.267,0,5.973
	c-1.707,1.707-4.267,1.707-5.973,0l-17.92-17.92v40.96C349.867,314.027,348.16,315.733,345.6,315.733z M317.44,157.867l28.16,28.16
	l28.16-28.16l-28.16-28.16L317.44,157.867z"/>
<g>
</g>
<g>
</g>
<g>
</g>
<g>
</g>
<g>
</g>
<g>
</g>
<g>
</g>
<g>
</g>
<g>
</g>
<g>
</g>
<g>
</g>
<g>
</g>
<g>
</g>
<g>
</g>
<g>
</g>
</svg>
